<svg xmlns="http://www.w3.org/2000/svg" width="34.972" height="35" viewBox="0 0 34.972 35">
  <g id="Group_863" data-name="Group 863" transform="translate(404.653 -129.707)">
    <path id="Path_3981" data-name="Path 3981" d="M-387.162,164.707a17.525,17.525,0,0,1-17.491-17.514A17.488,17.488,0,0,1-387.2,129.707a17.471,17.471,0,0,1,17.523,17.446A17.51,17.51,0,0,1-387.162,164.707Zm11.919-8.361a15.045,15.045,0,0,0-1.8-20.295,15.117,15.117,0,0,0-20.812.537,15.019,15.019,0,0,0-1.225,19.753,17.316,17.316,0,0,1,11.9-4.661A17.317,17.317,0,0,1-375.243,156.345Z" transform="translate(0)" fill="#575556"/>
    <path id="Path_3982" data-name="Path 3982" d="M-259.25,228.731a6.918,6.918,0,0,1-6.926-6.885,6.934,6.934,0,0,1,6.922-6.935,6.932,6.932,0,0,1,6.926,6.931A6.917,6.917,0,0,1-259.25,228.731Z" transform="translate(-127.913 -78.704)" fill="#575556"/>
  </g>
</svg>
